<svg xmlns="http://www.w3.org/2000/svg" xmlns:xlink="http://www.w3.org/1999/xlink" width="65.412" height="67.603" viewBox="0 0 65.412 67.603">
  <defs>
    <filter id="Path_8" x="0" y="0" width="65.412" height="67.603" filterUnits="userSpaceOnUse">
      <feOffset dx="3" dy="3" input="SourceAlpha"/>
      <feGaussianBlur stdDeviation="5" result="blur"/>
      <feFlood flood-opacity="0.122"/>
      <feComposite operator="in" in2="blur"/>
      <feComposite in="SourceGraphic"/>
    </filter>
  </defs>
  <g id="_6cf74253e344d212bf633d07f0525f48" data-name="6cf74253e344d212bf633d07f0525f48" transform="translate(12 12)">
    <path id="Path_7" data-name="Path 7" d="M29.234,25.583H15.555A5.548,5.548,0,0,1,10.193,21.3l-2.18-8.861a5.57,5.57,0,0,1,5.45-6.888H31.447a5.57,5.57,0,0,1,5.45,6.888l-2.18,8.883A5.559,5.559,0,0,1,29.234,25.583ZM13.4,8.275a2.856,2.856,0,0,0-2.768,3.52l2.18,8.883a2.834,2.834,0,0,0,2.768,2.18H29.234A2.834,2.834,0,0,0,32,20.678l2.18-8.883a2.845,2.845,0,0,0-2.768-3.52Z" transform="translate(0.227 0.227)"/>
    <g transform="matrix(1, 0, 0, 1, -12, -12)" filter="url(#Path_8)">
      <path id="Path_8-2" data-name="Path 8" d="M10.271,15.237a1.362,1.362,0,0,1-1.319-1.09L7,5.678a3.5,3.5,0,0,0-3.422-2.7H1.8A1.362,1.362,0,0,1,1.8.25H3.579A6.224,6.224,0,0,1,9.661,5.057l1.94,8.469a1.352,1.352,0,0,1-1.014,1.635A1.559,1.559,0,0,1,10.271,15.237Zm6.158,22.616a4.36,4.36,0,1,1,4.36-4.36A4.36,4.36,0,0,1,16.429,37.853Zm0-6.038a1.657,1.657,0,1,0,1.657,1.657,1.657,1.657,0,0,0-1.657-1.657Zm15.063,6.038a4.36,4.36,0,1,1,4.36-4.36A4.36,4.36,0,0,1,31.492,37.853Zm0-6.038a1.657,1.657,0,1,0,1.178.481,1.657,1.657,0,0,0-1.178-.481Z" transform="translate(11.56 11.75)"/>
    </g>
    <path id="Path_9" data-name="Path 9" d="M30.778,29.91H12.62a4.24,4.24,0,1,1,0-8.48h2.888a1.362,1.362,0,0,1,0,2.725H12.62a1.515,1.515,0,1,0,0,3.03H30.778a1.362,1.362,0,0,1,0,2.725Z" transform="translate(0.274 1.655)"/>
  </g>
</svg>
