<svg id="_1606c92a98e21a916a7818aafcf2b7e0" data-name="1606c92a98e21a916a7818aafcf2b7e0" xmlns="http://www.w3.org/2000/svg" width="34.467" height="34.467" viewBox="0 0 34.467 34.467">
  <path id="Path_1" data-name="Path 1" d="M26.816,13.294a1.077,1.077,0,1,0-1.479,1.566L34.2,23.232,25.338,31.6a1.077,1.077,0,1,0,1.479,1.566l9.694-9.155a1.078,1.078,0,0,0,0-1.566l-9.694-9.155Z" transform="translate(-11.536 -5.999)" fill="#180d3f"/>
  <path id="Path_2" data-name="Path 2" d="M17.233,0A17.232,17.232,0,0,0,5.048,29.418a17.232,17.232,0,1,0,24.37-24.37A17.117,17.117,0,0,0,17.233,0ZM27.895,27.9A15.078,15.078,0,1,1,6.572,6.571,15.078,15.078,0,1,1,27.895,27.9Z" fill="#180d3f"/>
</svg>
