<svg id="_1606c92a98e21a916a7818aafcf2b7e0" data-name="1606c92a98e21a916a7818aafcf2b7e0" xmlns="http://www.w3.org/2000/svg" width="34.467" height="34.467" viewBox="0 0 34.467 34.467">
  <path id="Path_1" data-name="Path 1" d="M35.031,13.294A1.077,1.077,0,1,1,36.51,14.86l-8.864,8.372L36.51,31.6a1.077,1.077,0,1,1-1.479,1.566l-9.694-9.155a1.078,1.078,0,0,1,0-1.566l9.694-9.155Z" transform="translate(-15.844 -5.999)" fill="#180d3f"/>
  <path id="Path_2" data-name="Path 2" d="M17.233,0A17.232,17.232,0,0,1,29.418,29.418,17.232,17.232,0,1,1,5.048,5.048,17.117,17.117,0,0,1,17.233,0ZM6.572,27.9A15.078,15.078,0,1,0,27.895,6.571,15.078,15.078,0,1,0,6.572,27.9Z" fill="#180d3f"/>
</svg>
