<svg xmlns="http://www.w3.org/2000/svg" width="20.26" height="20.947" viewBox="0 0 20.26 20.947">
  <path id="_4bb707180a26e3adf5e33313d3986fe2" data-name="4bb707180a26e3adf5e33313d3986fe2" d="M21.955,21.16,18.2,17.305A9.661,9.661,0,0,0,17.171,4.386,8.892,8.892,0,0,0,4.648,4.74,9.666,9.666,0,0,0,4.305,17.7a8.9,8.9,0,0,0,12.486,1.063l3.726,3.855a.989.989,0,0,0,1.438,0A1.074,1.074,0,0,0,21.955,21.16Zm-10.843-2.4a7.213,7.213,0,0,1-7.087-7.333A7.213,7.213,0,0,1,11.112,4.1,7.213,7.213,0,0,1,18.2,11.429a7.213,7.213,0,0,1-7.087,7.333Z" transform="translate(-1.979 -1.979)" fill="#fff"/>
</svg>
