<svg xmlns="http://www.w3.org/2000/svg" width="20.219" height="20.212" viewBox="0 0 20.219 20.212">
  <path id="bec1c2194899aa2fb834ce7e07b166db" d="M20.539,9.4,6.387,2.323A3.033,3.033,0,0,0,2.263,6.266l2.426,5.428h0a1.072,1.072,0,0,1,0,.829L2.263,17.952a3.033,3.033,0,0,0,2.77,4.266A3.174,3.174,0,0,0,6.4,21.894L20.55,14.818a3.033,3.033,0,0,0,0-5.418Zm-.9,3.609L5.488,20.084A1.011,1.011,0,0,1,4.123,18.77l2.416-5.428a2.022,2.022,0,0,0,.081-.222h6.965a1.011,1.011,0,1,0,0-2.022H6.62a2.022,2.022,0,0,0-.081-.222L4.123,5.447A1.011,1.011,0,0,1,5.488,4.133L19.64,11.209a1.011,1.011,0,0,1,0,1.8Z" transform="translate(-2.001 -2.006)" fill="#180d3f"/>
</svg>
